<svg width="560" height="560" xmlns="http://www.w3.org/2000/svg" version="1.1">
 <title>net_error</title>

 <g>
  <title>Layer 1</title>
  <g id="svg_1">
   <path id="svg_2" d="m431.67,560c-70.746,0 -128.33,-57.562 -128.33,-128.33s57.586,-128.33 128.33,-128.33c70.746,0 128.33,57.562 128.33,128.33s-57.586,128.33 -128.33,128.33zm0,-233.33c-57.891,0 -105,47.109 -105,105s47.109,105 105,105s105,-47.109 105,-105s-47.109,-105 -105,-105z" fill="#FFFFFF"/>
   <path id="svg_3" d="m431.67,466.67c-6.4414,0 -11.668,-5.2266 -11.668,-11.668l0,-93.332c0,-6.4414 5.2266,-11.668 11.668,-11.668c6.4414,0 11.668,5.2266 11.668,11.668l0,93.332c-0.00391,6.4414 -5.2305,11.668 -11.668,11.668z" fill="#FFFFFF"/>
   <path id="svg_4" d="m431.67,513.33c-3.0352,0 -6.0664,-1.168 -8.1914,-3.5c-2.3086,-2.332 -3.4766,-5.1328 -3.4766,-8.1641c0,-3.0352 1.168,-6.0664 3.2656,-8.168c4.668,-4.4336 12.367,-4.4336 16.566,0c2.3359,2.1016 3.5,5.1328 3.5,8.168c0,3.0352 -1.168,6.0664 -3.2891,8.168c-2.3086,2.332 -5.3438,3.4961 -8.375,3.4961l0.0005,0z" fill="#FFFFFF"/>
   <path id="svg_5" d="m268.33,536.67c-147.96,0 -268.33,-120.38 -268.33,-268.34s120.38,-268.33 268.33,-268.33s268.34,120.38 268.34,268.33c0,9.332 -0.53516,18.969 -1.6797,29.445c-0.67578,6.418 -6.4648,11.082 -12.855,10.336c-6.3945,-0.69922 -11.035,-6.4414 -10.336,-12.855c0.95312,-8.8398 1.5352,-17.801 1.5352,-26.926c0,-135.1 -109.9,-245 -245,-245c-135.1,0 -245,109.9 -245,245c0,135.1 109.9,245 245,245c9.1016,0 18.059,-0.58203 26.902,-1.5391c6.3008,-0.69922 12.156,3.8984 12.879,10.336c0.69922,6.3945 -3.9219,12.156 -10.312,12.855c-10.402,1.1445 -20.039,1.6836 -29.469,1.6836l-0.0045,0.0045z" fill="#FFFFFF"/>
   <path id="svg_6" d="m268.33,536.67c-85.047,0 -151.66,-117.86 -151.66,-268.34c0,-150.48 66.617,-268.33 151.66,-268.33c85.051,0 151.67,117.86 151.67,268.33c0,6.4414 -5.2266,11.668 -11.668,11.668c-6.4375,0 -11.664,-5.2266 -11.664,-11.668c0,-132.79 -58.777,-245 -128.34,-245c-69.555,0 -128.33,112.21 -128.33,245c0,132.79 58.777,245 128.33,245c6.4414,0 11.668,5.2266 11.668,11.668s-5.2266,11.668 -11.668,11.668l0.002,0.004z" fill="#FFFFFF"/>
   <path id="svg_7" d="m268.33,536.67c-6.4414,0 -11.668,-5.2266 -11.668,-11.668l0,-513.33c0.00391,-6.4414 5.2305,-11.668 11.668,-11.668c6.4414,0 11.668,5.2266 11.668,11.668l0,513.33c0,6.4414 -5.2266,11.668 -11.668,11.668z" fill="#FFFFFF"/>
   <path id="svg_8" d="m525,280l-513.33,0c-6.4414,0 -11.668,-5.2266 -11.668,-11.668c0,-6.4375 5.2266,-11.664 11.668,-11.664l513.33,0c6.4414,0 11.668,5.2266 11.668,11.668c0,6.4375 -5.2266,11.664 -11.668,11.664z" fill="#FFFFFF"/>
   <path id="svg_9" d="m478.33,140l-420,0c-6.4375,0 -11.664,-5.2266 -11.664,-11.668c0,-6.4375 5.2266,-11.664 11.664,-11.664l420,0c6.4414,0 11.668,5.2266 11.668,11.664c0,6.4414 -5.2266,11.668 -11.668,11.668z" fill="#FFFFFF"/>
   <path id="svg_10" d="m268.33,420l-210,0c-6.4375,0 -11.664,-5.2266 -11.664,-11.668c0,-6.4375 5.2266,-11.664 11.664,-11.664l210,0c6.4414,0 11.668,5.2266 11.668,11.668c0,6.4375 -5.2266,11.664 -11.668,11.664z" fill="#FFFFFF"/>
  </g>
 </g>
</svg>